<svg xmlns="http://www.w3.org/2000/svg" width="301" height="151" viewBox="0 0 301 151">
  <g fill="none">
    <path fill="#da121a" d="M.5.5h300v150H.5z"/>
    <path fill="#fcdd09" d="M.5.5h300v100H.5z"/>
    <path fill="#078930" d="M.5.5h300v50H.5z"/>
    <circle cx="150.5" cy="75.5" r="50" fill="#0f47af"/>
    <path fill="#fcdd09" d="M112.458 62.984h29.062l6.571-20.223 1.752 5.394-9.549 29.389-2.835-2.06 2.978-9.166h-23.391zm14.531 44.721 8.98-27.639-17.203-12.499h5.671l25 18.163-2.835 2.06-7.796-5.665-7.228 22.246zm47.022 0L150.5 90.623l-17.203 12.499 1.752-5.393 25-18.163 1.083 3.333-7.796 5.664 18.923 13.749zm14.531-44.721-23.511 17.082 6.571 20.223-4.588-3.333-9.549-29.389h3.505l2.978 9.166 18.923-13.749zM150.5 35.344l8.98 27.639h21.264l-4.588 3.333h-30.901l1.083-3.333h9.637l-7.228-22.246z"/>
    <path fill="#000" stroke="#fcdd09" stroke-width="1.667" d="M150.5 93.833V115.5zm-17.436-12.668-20.606 6.695zm6.66-20.497-12.735-17.529zm21.552 0 12.735-17.529zm6.66 20.497 20.606 6.695z"/>
  </g>
</svg>
